<mxfile host="www.draw.io" modified="2019-12-25T12:56:11.894Z" agent="Mozilla/5.0 (Windows NT 10.0; Win64; x64) AppleWebKit/537.36 (KHTML, like Gecko) Chrome/79.0.3945.88 Safari/537.36" etag="AUqdlu2K-Yj07CZor-p-" version="12.4.3" type="github" pages="1">
  <diagram id="MWBJoO8W0iGTc28G7V0c" name="Page-1">
    <mxGraphModel dx="1038" dy="548" grid="1" gridSize="10" guides="1" tooltips="1" connect="1" arrows="1" fold="1" page="1" pageScale="1" pageWidth="850" pageHeight="1100" math="0" shadow="0">
      <root>
        <mxCell id="0"/>
        <mxCell id="1" parent="0"/>
        <mxCell id="ce92vtV3I4qPERhwewqX-1" value="User(Coach , Athlete , Admin)" style="shape=umlLifeline;participant=umlActor;perimeter=lifelinePerimeter;whiteSpace=wrap;html=1;container=1;collapsible=0;recursiveResize=0;verticalAlign=top;spacingTop=36;labelBackgroundColor=#ffffff;outlineConnect=0;" parent="1" vertex="1">
          <mxGeometry x="110" y="80" width="20" height="560" as="geometry"/>
        </mxCell>
        <mxCell id="ce92vtV3I4qPERhwewqX-7" value="" style="html=1;points=[];perimeter=orthogonalPerimeter;" parent="ce92vtV3I4qPERhwewqX-1" vertex="1">
          <mxGeometry x="5" y="120" width="10" height="200" as="geometry"/>
        </mxCell>
        <mxCell id="ce92vtV3I4qPERhwewqX-21" value="" style="html=1;points=[];perimeter=orthogonalPerimeter;" parent="ce92vtV3I4qPERhwewqX-1" vertex="1">
          <mxGeometry x="5" y="460" width="10" height="70" as="geometry"/>
        </mxCell>
        <mxCell id="ce92vtV3I4qPERhwewqX-2" value="&amp;lt;&amp;lt; Authentication Panel &amp;gt;&amp;gt;" style="shape=umlLifeline;perimeter=lifelinePerimeter;whiteSpace=wrap;html=1;container=1;collapsible=0;recursiveResize=0;outlineConnect=0;" parent="1" vertex="1">
          <mxGeometry x="270" y="80" width="260" height="560" as="geometry"/>
        </mxCell>
        <mxCell id="ce92vtV3I4qPERhwewqX-9" value="" style="html=1;points=[];perimeter=orthogonalPerimeter;" parent="ce92vtV3I4qPERhwewqX-2" vertex="1">
          <mxGeometry x="85" y="120" width="10" height="360" as="geometry"/>
        </mxCell>
        <mxCell id="ce92vtV3I4qPERhwewqX-23" value="]Authorized]Send Redirect To Panel Request" style="html=1;verticalAlign=bottom;endArrow=block;entryX=-0.02;entryY=0.033;entryDx=0;entryDy=0;entryPerimeter=0;" parent="ce92vtV3I4qPERhwewqX-2" target="ce92vtV3I4qPERhwewqX-22" edge="1">
          <mxGeometry width="80" relative="1" as="geometry">
            <mxPoint x="100" y="373" as="sourcePoint"/>
            <mxPoint x="220" y="380" as="targetPoint"/>
          </mxGeometry>
        </mxCell>
        <mxCell id="tes6nXPCKTqXU3ggMcNv-1" value="" style="endArrow=classic;html=1;exitX=1.5;exitY=0;exitDx=0;exitDy=0;exitPerimeter=0;entryX=1.26;entryY=0.118;entryDx=0;entryDy=0;entryPerimeter=0;" parent="ce92vtV3I4qPERhwewqX-2" source="ce92vtV3I4qPERhwewqX-9" target="ce92vtV3I4qPERhwewqX-9" edge="1">
          <mxGeometry width="50" height="50" relative="1" as="geometry">
            <mxPoint x="130" y="160" as="sourcePoint"/>
            <mxPoint x="130" y="160" as="targetPoint"/>
            <Array as="points">
              <mxPoint x="130" y="120"/>
              <mxPoint x="140" y="130"/>
              <mxPoint x="140" y="150"/>
              <mxPoint x="130" y="159"/>
            </Array>
          </mxGeometry>
        </mxCell>
        <mxCell id="rTUM8TyuQF0acZ92o-qV-3" value="Validation Error" style="text;html=1;strokeColor=none;fillColor=none;align=center;verticalAlign=middle;whiteSpace=wrap;rounded=0;" parent="ce92vtV3I4qPERhwewqX-2" vertex="1">
          <mxGeometry x="130" y="130" width="110" height="20" as="geometry"/>
        </mxCell>
        <mxCell id="ce92vtV3I4qPERhwewqX-8" value="Enter The Login Information" style="html=1;verticalAlign=bottom;endArrow=block;entryX=0.54;entryY=-0.002;entryDx=0;entryDy=0;entryPerimeter=0;" parent="1" source="ce92vtV3I4qPERhwewqX-1" target="ce92vtV3I4qPERhwewqX-9" edge="1">
          <mxGeometry width="80" relative="1" as="geometry">
            <mxPoint x="150" y="200" as="sourcePoint"/>
            <mxPoint x="350" y="200" as="targetPoint"/>
            <Array as="points">
              <mxPoint x="160" y="200"/>
              <mxPoint x="290" y="200"/>
            </Array>
          </mxGeometry>
        </mxCell>
        <mxCell id="ce92vtV3I4qPERhwewqX-10" value="&amp;lt;&amp;lt; Authentication API System&amp;gt;&amp;gt;" style="shape=umlLifeline;perimeter=lifelinePerimeter;whiteSpace=wrap;html=1;container=1;collapsible=0;recursiveResize=0;outlineConnect=0;" parent="1" vertex="1">
          <mxGeometry x="570" y="80" width="180" height="560" as="geometry"/>
        </mxCell>
        <mxCell id="ce92vtV3I4qPERhwewqX-11" value="" style="html=1;points=[];perimeter=orthogonalPerimeter;" parent="ce92vtV3I4qPERhwewqX-10" vertex="1">
          <mxGeometry x="85" y="190" width="10" height="90" as="geometry"/>
        </mxCell>
        <mxCell id="ce92vtV3I4qPERhwewqX-22" value="" style="html=1;points=[];perimeter=orthogonalPerimeter;" parent="ce92vtV3I4qPERhwewqX-10" vertex="1">
          <mxGeometry x="85" y="370" width="10" height="80" as="geometry"/>
        </mxCell>
        <mxCell id="ce92vtV3I4qPERhwewqX-12" value="Click On Login" style="html=1;verticalAlign=bottom;endArrow=block;" parent="1" target="ce92vtV3I4qPERhwewqX-9" edge="1">
          <mxGeometry width="80" relative="1" as="geometry">
            <mxPoint x="130" y="270" as="sourcePoint"/>
            <mxPoint x="210" y="239.5" as="targetPoint"/>
            <Array as="points">
              <mxPoint x="240" y="270"/>
            </Array>
          </mxGeometry>
        </mxCell>
        <mxCell id="ce92vtV3I4qPERhwewqX-13" value="Send Login Information To The System" style="html=1;verticalAlign=bottom;endArrow=open;endSize=8;" parent="1" source="ce92vtV3I4qPERhwewqX-9" edge="1">
          <mxGeometry relative="1" as="geometry">
            <mxPoint x="510" y="270" as="sourcePoint"/>
            <mxPoint x="650" y="282" as="targetPoint"/>
          </mxGeometry>
        </mxCell>
        <mxCell id="ce92vtV3I4qPERhwewqX-17" value="Return Authorization Status" style="html=1;verticalAlign=bottom;endArrow=open;dashed=1;endSize=8;exitX=0.14;exitY=1.007;exitDx=0;exitDy=0;exitPerimeter=0;" parent="1" source="ce92vtV3I4qPERhwewqX-11" edge="1">
          <mxGeometry relative="1" as="geometry">
            <mxPoint x="540" y="340" as="sourcePoint"/>
            <mxPoint x="370" y="361" as="targetPoint"/>
          </mxGeometry>
        </mxCell>
        <mxCell id="ce92vtV3I4qPERhwewqX-18" value="return Authorization Result Message" style="html=1;verticalAlign=bottom;endArrow=open;dashed=1;endSize=8;" parent="1" target="ce92vtV3I4qPERhwewqX-7" edge="1">
          <mxGeometry relative="1" as="geometry">
            <mxPoint x="350" y="400" as="sourcePoint"/>
            <mxPoint x="210" y="350" as="targetPoint"/>
          </mxGeometry>
        </mxCell>
        <mxCell id="ce92vtV3I4qPERhwewqX-24" value="Redirect Status : OK or Not OK" style="html=1;verticalAlign=bottom;endArrow=open;dashed=1;endSize=8;" parent="1" edge="1">
          <mxGeometry relative="1" as="geometry">
            <mxPoint x="650" y="530" as="sourcePoint"/>
            <mxPoint x="370" y="530" as="targetPoint"/>
          </mxGeometry>
        </mxCell>
        <mxCell id="ce92vtV3I4qPERhwewqX-25" value="Redirect User To Panel" style="html=1;verticalAlign=bottom;endArrow=open;dashed=1;endSize=8;" parent="1" edge="1">
          <mxGeometry relative="1" as="geometry">
            <mxPoint x="350" y="550" as="sourcePoint"/>
            <mxPoint x="130" y="550" as="targetPoint"/>
          </mxGeometry>
        </mxCell>
        <mxCell id="tes6nXPCKTqXU3ggMcNv-3" value="return Invalid Info Message" style="html=1;verticalAlign=bottom;endArrow=open;dashed=1;endSize=8;" parent="1" edge="1">
          <mxGeometry relative="1" as="geometry">
            <mxPoint x="355" y="250" as="sourcePoint"/>
            <mxPoint x="130" y="250" as="targetPoint"/>
          </mxGeometry>
        </mxCell>
      </root>
    </mxGraphModel>
  </diagram>
</mxfile>
